<svg t="1656072064218" class="icon" viewBox="0 0 1024 1024" version="1.1" xmlns="http://www.w3.org/2000/svg" p-id="10283" width="32" height="32"><path d="M845.913043 22.26087H178.086957c-24.486957 0-44.521739 20.034783-44.52174 44.521739v890.434782c0 24.486957 20.034783 44.521739 44.52174 44.521739h667.826086c24.486957 0 44.521739-20.034783 44.52174-44.521739V66.782609c0-24.486957-20.034783-44.521739-44.52174-44.521739z m-44.521739 890.434782H222.608696V111.304348h578.782608v801.391304zM333.913043 751.304348c0-21.147826 17.808696-38.956522 38.956522-38.956522h264.904348c21.147826 0 38.956522 17.808696 38.956522 38.956522S660.034783 790.26087 637.773913 790.26087H372.869565c-21.147826 0-38.956522-17.808696-38.956522-38.956522z m0-155.826087c0-21.147826 17.808696-38.956522 38.956522-38.956522h264.904348c21.147826 0 38.956522 17.808696 38.956522 38.956522S660.034783 634.434783 637.773913 634.434783H372.869565c-21.147826 0-38.956522-17.808696-38.956522-38.956522z m345.043479-322.782609c0-21.147826-17.808696-38.956522-38.956522-38.956522h-267.130435c-21.147826 0-38.956522 17.808696-38.956522 38.956522v155.826087c0 21.147826 17.808696 38.956522 38.956522 38.956522h267.130435c21.147826 0 38.956522-17.808696 38.956522-38.956522v-155.826087zM411.826087 311.652174h189.217391v77.913043H411.826087v-77.913043z" p-id="10284"></path></svg>