<svg t="1653645440173" class="icon" viewBox="0 0 1024 1024" version="1.1" xmlns="http://www.w3.org/2000/svg" p-id="2623" width="32" height="32"><path d="M997.86727 633.288378c20.31615 7.606853 28.496442 24.160536 24.564285 49.661049C950.611157 880.083954 749.228495 1023.999766 527.073272 1023.999766a514.129656 514.129656 0 0 1-159.047598-25.049953 517.704877 517.704877 0 0 0 90.503999 7.928682c223.875542 0 412.665936-152.505704 483.204872-352.033465 17.109568-21.972103 35.822427-29.157654 56.132725-21.556652zM496.926728 0.000293a514.129656 514.129656 0 0 1 159.047598 25.049952 517.704877 517.704877 0 0 0-90.503999-7.928681c-223.875542 0-412.665936 152.505704-483.204872 352.033464-15.997797 24.400445-34.353719 32.826497-55.061914 25.28401-20.714046-7.542488-29.257128-25.336673-25.629244-53.388407C73.382991 143.916104 274.771505 0.000293 496.920876 0.000293z" fill="#1AE6FF" p-id="2624"></path></svg>