<svg t="1656395464118" class="icon" viewBox="0 0 1024 1024" version="1.1" xmlns="http://www.w3.org/2000/svg" p-id="3361" width="32" height="32"><path d="M483.214222 790.300444l378.197334-378.311111c1.706667-1.706667 2.503111-3.982222 2.275555-6.257777l-25.486222-301.425778a16.042667 16.042667 0 0 0-14.592-14.592L522.211556 64.284444a7.793778 7.793778 0 0 0-6.314667 2.275556L137.699556 444.842667a8.021333 8.021333 0 0 0 0 11.292444l334.222222 334.222222a7.850667 7.850667 0 0 0 11.264 0zM605.866667 256.910222a48.099556 48.099556 0 0 1 67.896889 0 48.099556 48.099556 0 0 1 0 67.896889 48.099556 48.099556 0 0 1-67.896889 0 48.099556 48.099556 0 0 1 0-67.896889z m283.818666 282.908445l-39.623111-39.537778a8.021333 8.021333 0 0 0-11.292444 0L476.785778 861.639111 239.217778 624.611556a8.021333 8.021333 0 0 0-11.292445 0L188.302222 664.120889a8.021333 8.021333 0 0 0 0 11.292444l243.2 242.801778 39.594667 39.480889a8.021333 8.021333 0 0 0 11.292444 0l407.324445-406.584889a8.021333 8.021333 0 0 0 0-11.292444z" p-id="3362"></path></svg>