<svg t="1657467379184" class="icon" viewBox="0 0 1024 1024" version="1.1" xmlns="http://www.w3.org/2000/svg" p-id="2321" width="32" height="32"><path d="M934.4 70.4l-64-64C864 6.4 857.6 0 844.8 0l0 0c-6.4 0-19.2 6.4-25.6 12.8L499.2 332.8C492.8 339.2 492.8 345.6 492.8 345.6l0 0L435.2 492.8c0 6.4 0 12.8 6.4 19.2C441.6 512 441.6 512 448 512c0 0 6.4 0 6.4 0l140.8-57.6 0 0C601.6 448 608 448 608 448c0 0 0 0 0 0l326.4-326.4c6.4-6.4 12.8-12.8 12.8-25.6C940.8 89.6 940.8 76.8 934.4 70.4zM800 83.2l19.2 19.2L556.8 364.8 524.8 358.4 800 83.2zM505.6 384l38.4 12.8 12.8 38.4L473.6 467.2 505.6 384zM588.8 422.4C588.8 422.4 588.8 422.4 588.8 422.4L576 390.4 838.4 128l19.2 19.2L588.8 422.4zM908.8 96l-25.6 25.6-64-64 25.6-25.6c0 0 0 0 0 0 0 0 0 0 0 0L908.8 96C908.8 96 908.8 96 908.8 96z" p-id="2322"></path><path d="M83.2 480l332.8 0 0 32-332.8 0 0-32Z" p-id="2323"></path><path d="M83.2 608l736 0 0 32-736 0 0-32Z" p-id="2324"></path><path d="M83.2 736l736 0 0 32-736 0 0-32Z" p-id="2325"></path><path d="M83.2 864l736 0 0 32-736 0 0-32Z" p-id="2326"></path><path d="M83.2 992l736 0 0 32-736 0 0-32Z" p-id="2327"></path></svg>